# xmcd
#
# Track frame offsets: 
#        160
#        20022
#        34442
#        48697
#        75125
#        91305
#        113512
#        135625
#        156755
#        180155
#        200075
#        221820
#        240485
#        256415
#
# Disc length: 3694 seconds
#
# Revision: 3
# Processed by: cddbd v1.5.2PL0 Copyright (c) Steve Scherf et al.
# Submitted via: ExactAudioCopy v0.95b4
#
DISCID=b70e6c0e
DTITLE=Рок Острова - Взлети же к небу
DYEAR=1900
DGENRE=Blues
TTITLE0=Ничего не говори
TTITLE1=Мне бы свет в окошке
TTITLE2=Стынут руки на ветру
TTITLE3=Что же делать
TTITLE4=Возьми цветы
TTITLE5=А я не могу поверить
TTITLE6=За что ...
TTITLE7=До дна
TTITLE8=Поезд
TTITLE9=Roland
TTITLE10=Взлети же к небу
TTITLE11=Согрей меня
TTITLE12=Мне не верится
TTITLE13=Я отправляюсь в дальний путь
EXTD=ID3G: 0
EXTT0=
EXTT1=
EXTT2=
EXTT3=
EXTT4=
EXTT5=
EXTT6=
EXTT7=
EXTT8=
EXTT9=
EXTT10=
EXTT11=
EXTT12=
EXTT13=
PLAYORDER=
